<?xml version="1.0" standalone="no"?>
<!DOCTYPE svg PUBLIC "-//W3C//DTD SVG 20010904//EN"
 "http://www.w3.org/TR/2001/REC-SVG-20010904/DTD/svg10.dtd">
<svg version="1.0" xmlns="http://www.w3.org/2000/svg"
 width="140" height="46" viewBox="0 0 500.000000 500.000000"
 preserveAspectRatio="xMidYMid meet">

<g transform="translate(0.000000,500.000000) scale(0.100000,-0.100000)"
fill="#111111" stroke="none">
<path d="M403 2973 c-21 -8 -15 -19 10 -19 12 0 941 -1 2065 -2 l2042 -2 0
-450 0 -450 -2055 0 -2055 0 0 441 c0 291 -3 438 -10 434 -6 -4 -10 -167 -10
-456 l0 -449 2070 0 2070 0 1 408 c0 224 0 430 1 457 0 28 0 60 -1 73 l-1 22
-2057 -1 c-1132 0 -2064 -3 -2070 -6z"/>
<path d="M470 2500 l0 -390 1140 0 1140 0 0 390 0 390 -1140 0 -1140 0 0 -390z
m280 135 c28 -15 70 -60 70 -76 0 -19 -39 -8 -54 16 -32 48 -128 42 -157 -11
-20 -37 -15 -92 11 -119 43 -45 107 -41 152 10 24 27 48 33 48 11 0 -25 -49
-74 -86 -86 -105 -35 -204 60 -175 168 10 37 50 84 81 95 29 11 81 7 110 -8z
m327 -19 c29 -34 31 -88 3 -116 -11 -11 -25 -20 -30 -20 -6 0 3 -20 20 -44 36
-53 36 -56 10 -56 -13 0 -32 17 -52 45 -25 35 -38 45 -59 45 -26 0 -28 -2 -26
-45 2 -41 0 -45 -20 -45 -23 0 -23 2 -23 128 0 71 3 132 8 136 4 5 38 6 76 3
60 -4 73 -8 93 -31z m223 31 c0 -2 25 -62 55 -135 52 -127 53 -132 32 -132
-16 0 -26 9 -34 30 -11 29 -14 30 -71 30 -57 0 -60 -1 -72 -30 -8 -18 -20 -30
-31 -30 -24 0 -24 -4 10 82 57 142 80 188 95 188 9 0 16 -1 16 -3z m330 -17
c0 -18 -7 -20 -61 -20 l-60 0 3 -42 3 -43 53 -3 c37 -2 52 -7 52 -18 0 -10
-14 -14 -55 -14 l-55 0 0 -55 c0 -48 -2 -55 -20 -55 -19 0 -20 7 -20 128 0 71
3 132 7 135 3 4 39 7 80 7 66 0 73 -2 73 -20z m270 0 c0 -17 -7 -20 -40 -20
l-40 0 0 -115 c0 -108 -1 -115 -20 -115 -18 0 -20 8 -22 113 l-3 112 -42 3
c-35 3 -43 7 -43 23 0 18 8 19 105 19 98 0 105 -1 105 -20z m118 -118 c2 -127
2 -132 -18 -132 -19 0 -20 6 -20 136 0 124 2 135 18 132 15 -3 17 -19 20 -136z
m199 41 l68 -98 5 95 c4 80 8 95 23 98 15 3 17 -8 17 -132 0 -127 -1 -136 -19
-136 -13 0 -42 32 -88 96 l-68 97 -3 -97 c-2 -88 -4 -96 -22 -96 -19 0 -20 7
-20 128 0 180 10 184 107 45z m386 86 c33 -17 67 -51 67 -66 0 -21 -30 -15
-62 12 -63 53 -158 9 -158 -75 0 -60 60 -108 119 -95 28 6 71 46 71 66 0 5
-25 9 -56 9 -47 0 -55 3 -52 18 3 14 16 18 76 20 l72 3 0 -34 c0 -46 -37 -98
-82 -115 -119 -46 -230 84 -170 197 32 59 119 89 175 60z"/>
<path d="M947 2603 c-4 -3 -7 -26 -7 -50 l0 -43 41 0 c22 0 49 5 60 10 26 14
24 55 -3 74 -23 16 -79 22 -91 9z"/>
<path d="M1267 2549 c-33 -80 -33 -79 17 -79 50 0 50 -6 13 80 l-15 34 -15
-35z"/>
<path d="M2855 2607 c-62 -62 -55 -158 15 -205 67 -46 185 -11 203 59 4 16 0
19 -25 19 -16 0 -41 -9 -55 -20 -35 -27 -67 -25 -92 6 -27 34 -27 64 -1 92 26
28 71 28 95 2 11 -12 31 -20 52 -20 l34 0 -16 29 c-26 50 -61 71 -122 71 -49
0 -59 -4 -88 -33z"/>
<path d="M3130 2511 l0 -131 29 0 c27 0 30 3 33 37 4 54 31 56 58 4 18 -36 25
-41 55 -41 19 0 35 2 35 5 0 3 -9 24 -20 45 l-20 40 20 20 c28 28 26 82 -4
117 -22 25 -31 28 -105 31 l-81 4 0 -131z m138 40 c4 -28 -12 -41 -50 -41 -25
0 -28 3 -28 36 0 35 1 35 38 32 30 -2 38 -7 40 -27z"/>
<path d="M3380 2634 c0 -4 20 -44 45 -90 33 -59 45 -93 45 -123 0 -39 2 -41
30 -41 29 0 30 2 30 43 0 32 12 63 49 130 l49 87 -39 0 c-37 0 -41 -3 -61 -45
-12 -25 -25 -45 -28 -45 -3 0 -16 20 -28 45 -20 41 -25 45 -57 45 -19 0 -35
-3 -35 -6z"/>
<path d="M3670 2510 l0 -130 29 0 c26 0 30 4 33 33 3 30 6 32 50 37 26 3 56
14 67 24 29 26 36 77 17 114 -19 37 -59 52 -137 52 l-59 0 0 -130z m130 55
c17 -20 3 -52 -26 -59 -34 -9 -44 0 -44 40 0 31 3 34 29 34 16 0 34 -7 41 -15z"/>
<path d="M3900 2610 c0 -28 2 -30 40 -30 l40 0 0 -100 0 -100 35 0 34 0 3 98
3 97 38 3 c34 3 37 6 37 33 l0 29 -115 0 -115 0 0 -30z"/>
<path d="M4220 2618 c-50 -34 -70 -93 -50 -150 20 -54 56 -80 122 -86 44 -3
59 0 88 20 67 45 77 138 21 200 -24 27 -36 32 -87 36 -50 3 -65 0 -94 -20z
m131 -59 c28 -28 22 -76 -13 -102 -68 -51 -143 46 -82 107 22 22 70 20 95 -5z"/>
</g>
</svg>
